<svg width="30" height="31" viewBox="0 0 30 31" fill="none" xmlns="http://www.w3.org/2000/svg">
<g filter="url(#filter0_d_211_12)">
<path fill-rule="evenodd" clip-rule="evenodd" d="M21.3614 2.41873C21.8695 4.01029 21.2488 5.66405 19.9622 6.35437C21.4108 6.17154 22.8749 7.15987 23.3829 8.75139C23.891 10.3429 23.2703 11.9967 21.9837 12.687C23.4323 12.5042 24.8964 13.4925 25.4044 15.0841C25.9704 16.857 25.1356 18.7073 23.5399 19.2167C22.1076 19.6739 20.5489 18.8953 19.8355 17.4486C20.0922 19.0411 19.2729 20.5788 17.8406 21.036C16.4082 21.4933 14.8495 20.7146 14.1361 19.268C14.3928 20.8604 13.5736 22.3981 12.1412 22.8554C10.5455 23.3648 8.79305 22.3403 8.22709 20.5674C7.71905 18.9759 8.3397 17.3221 9.62627 16.6318C8.1777 16.8146 6.71363 15.8262 6.20559 14.2347C5.69754 12.6432 6.3182 10.9894 7.60477 10.2991C6.1562 10.4819 4.69214 9.49362 4.18408 7.90205C3.61811 6.12904 4.45287 4.27881 6.04857 3.76943C7.48098 3.31218 9.03961 4.09084 9.75304 5.53746C9.49636 3.94504 10.3156 2.40732 11.748 1.95008C13.1803 1.49284 14.739 2.27149 15.4524 3.71811C15.1958 2.12569 16.015 0.587966 17.4474 0.130728C19.043 -0.378641 20.7955 0.645721 21.3614 2.41873ZM10.0931 6.60267C10.3205 8.01355 9.70336 9.38146 8.56346 9.99306C9.84689 9.83108 11.1425 10.5884 11.7746 11.8702C11.5471 10.4593 12.1643 9.09132 13.3042 8.47972C12.0208 8.6417 10.7252 7.88438 10.0931 6.60267ZM14.2628 8.17372C15.4027 7.56212 16.0199 6.1942 15.7925 4.78332C16.4246 6.06503 17.7202 6.82235 19.0036 6.66037C17.8637 7.27197 17.2465 8.63992 17.474 10.0508C16.8419 8.7691 15.5463 8.01174 14.2628 8.17372ZM19.4955 16.3835C19.268 14.9726 19.8852 13.6046 21.0251 12.993C19.7417 13.155 18.4461 12.3977 17.814 11.1159C18.0414 12.5268 17.4242 13.8948 16.2843 14.5064C17.5678 14.3444 18.8634 15.1018 19.4955 16.3835ZM12.1146 12.9353C12.7467 14.217 14.0423 14.9744 15.3257 14.8124C14.1858 15.424 13.5686 16.7919 13.7961 18.2028C13.164 16.9211 11.8684 16.1637 10.585 16.3257C11.7249 15.7141 12.342 14.3462 12.1146 12.9353Z" fill="#48D8E8"/>
</g>
<defs>
<filter id="filter0_d_211_12" x="0" y="0" width="29.5885" height="31" filterUnits="userSpaceOnUse" color-interpolation-filters="sRGB">
<feFlood flood-opacity="0" result="BackgroundImageFix"/>
<feColorMatrix in="SourceAlpha" type="matrix" values="0 0 0 0 0 0 0 0 0 0 0 0 0 0 0 0 0 0 127 0" result="hardAlpha"/>
<feOffset dy="4"/>
<feGaussianBlur stdDeviation="2"/>
<feComposite in2="hardAlpha" operator="out"/>
<feColorMatrix type="matrix" values="0 0 0 0 0 0 0 0 0 0 0 0 0 0 0 0 0 0 0.25 0"/>
<feBlend mode="normal" in2="BackgroundImageFix" result="effect1_dropShadow_211_12"/>
<feBlend mode="normal" in="SourceGraphic" in2="effect1_dropShadow_211_12" result="shape"/>
</filter>
</defs>
</svg>
